<svg version="1.1" id="svg-draw" xmlns="http://www.w3.org/2000/svg" xmlns:xlink="http://www.w3.org/1999/xlink" x="0px" y="0px" width="100%" height="100%" xml:space="preserve" xmlns:svgjs="http://svgjs.com/svgjs" viewBox="0 0 670 500">
	<g id="svg-content">
		<g id="svg-logo" class="svg-element" style="cursor: pointer;" transform="matrix(2.4122151686775046,0,0,2.7548840671817705,72.07206274773598,-61.884068762251275)">
<g>
	<path fill="#C1272D" d="M31.5,115.1l59.9-59.9c4.9-4.9,12.9-4.9,17.8,0l59.9,59.9c4.9,4.9,4.9,12.9,0,17.8l-20.3,20.3H51.9
		l-20.3-20.3C26.7,128,26.7,120,31.5,115.1z"></path>
	<path fill="#F15A24" d="M38,115.9l54.3-54.3c4.4-4.4,11.8-4.4,16.2,0l54.3,54.3c4.4,4.4,4.4,11.7,0,16.1l-21.2,21.2H59.1L38,132
		C33.5,127.6,33.5,120.4,38,115.9z"></path>
	<path fill="#FBB03B" d="M57.2,118.5l37.5-37.6c3.1-3.1,8-3.1,11.1,0l37.5,37.6c3.1,3,3.1,8,0,11.1c-28.8-22.5-38.3,28.7-86.2,0
		C54.1,126.5,54.1,121.4,57.2,118.5z"></path>
	<path fill="#FBB03B" d="M97.6,26.1c0.6-0.5,1.4-0.8,2.2-0.8l0,0c0.8,0,1.6,0.3,2.3,0.8c31.7,31.6,63.2,63.5,94.9,95.1
		c1.1,1.2,1.1,3.1,0,4.2l-3.7,3.7c-1.2,1.1-3,1.1-4.2,0L99.8,39.8l-89.3,89.3c-1.2,1.1-3.1,1.1-4.2,0l-3.7-3.7c-1.1-1.1-1.1-3,0-4.2
		C34.4,89.6,66,57.8,97.6,26.1z"></path>
	<path fill="#333333" d="M76.5,132.4l20.7-20.7c1.7-1.7,4.5-1.7,6.2,0l20.7,20.7c1.7,1.7,1.7,4.5,0,6.2l-14.6,14.6H91.1l-14.7-14.6
		C74.8,136.9,74.8,134.1,76.5,132.4z"></path>
</g>
 </g>
		<g id="svg-name" class="svg-element" style="cursor: pointer;" transform="matrix(2.096184140260737,0,0,2.5952867412122225,207.66688646566334,373.95670178807313)"><g transform="matrix(1,0,0,1,0,0)" fill="#000000"><path d="M13.09 10.21L13.09 5.82L34.96 5.82L34.96 5.82Q37.11 5.63 36.91 7.77L36.91 7.77L36.91 10.21L46.68 10.21L46.68 6.99L46.68 6.99Q46.73 3.87 45.53 2.67L45.53 2.67L45.53 2.67Q44.34 1.47 41.21 1.52L41.21 1.52L30.08 1.52L30.08-1.89L20.12-1.89L20.12 1.52L3.32 1.52L3.32 10.21L13.09 10.21M5.57 11.58L5.57 41.07L2.25 41.07L2.25 45.37L47.75 45.37L47.75 41.07L44.43 41.07L44.43 17.05L44.43 17.05Q44.48 13.93 43.29 12.73L43.29 12.73L43.29 12.73Q42.09 11.53 38.96 11.58L38.96 11.58L5.57 11.58M15.33 15.88L32.71 15.88L32.71 15.88Q34.86 15.68 34.67 17.83L34.67 17.83L34.67 21.15L15.33 21.15L15.33 15.88M15.33 31.41L15.33 26.13L34.67 26.13L34.67 31.41L15.33 31.41M15.33 35.70L34.67 35.70L34.67 41.07L15.33 41.07L15.33 35.70ZM75.88 19.88L62.99 19.88L62.99 24.28L75.88 24.28L75.88 28.38L64.36 28.38L64.36 45.08L96.48 45.08L96.48 33.85L96.48 33.85Q96.53 30.72 95.34 29.53L95.34 29.53L95.34 29.53Q94.14 28.33 91.02 28.38L91.02 28.38L85.64 28.38L85.64 24.28L98.24 24.28L98.24 19.88L85.64 19.88L85.64 16.86L75.88 16.86L75.88 19.88M87.21 40.78L73.83 40.78L73.83 32.68L85.25 32.68L85.25 32.68Q87.40 32.48 87.21 34.63L87.21 34.63L87.21 40.78M96.78 15.59L96.78 4.84L96.78 4.84Q96.83 1.72 95.63 0.52L95.63 0.52L95.63 0.52Q94.43-0.67 91.31-0.63L91.31-0.63L52.73-0.63L52.73 29.36L51.76 45.37L61.23 45.37L62.30 29.84L62.30 15.59L96.78 15.59M62.30 11.29L62.30 3.67L85.25 3.67L85.25 3.67Q87.40 3.48 87.21 5.63L87.21 5.63L87.21 11.29L62.30 11.29Z"></path></g></g>
		<g id="svg-slogan" class="svg-element" style="cursor: pointer;" transform="matrix(1,0,0,1,334.5,356.5)"></g>
		<g id="svg-atext" class="svg-element" style="cursor: pointer;" transform="matrix(1,0,0,1,334.5,249.5)"></g>
	</g>
<defs id="SvgjsDefs1006"></defs><g id="svg-ghost" transform="matrix(1,0,0,1,0,0)"></g></svg>